<svg xmlns="http://www.w3.org/2000/svg" viewBox="0 0 256 256">
  <path fill="#4c8f27" d="M0 0h256v256H0Z"/>
  <path fill="#56a22b" d="M202.441 53.41c8.64 13.268 18.932 31.462 11.84 35.89-7.091 4.43-9.935 2.854-29.814 4.409-19.88 1.555-35.535 7.145-41.684 7.037-6.148-.108-26.49-5.277-37.685-13.824-11.196-8.547-23.528-14.768-24.082-23.147-.555-8.378 3.683-13.875 8.457-21.671 4.773-7.797 6.893-9.667 10.507-10.958 3.615-1.29 7.71-.937 23.672-.806 15.963.13 43.484-1.18 53.032.021 9.547 1.202 14.175 5.262 25.757 23.05zM256 182.857c-5.39 6.188-12.385 14.986-18.238 14.528-5.853-.459-40.66-17.946-63.08-29.764-22.421-11.819-23.964-16.59-24.594-22.385-.873-8.03-.947-14.253 3.03-25.808 3.975-11.556 48.226-12.79 57.688-9.593 9.463 3.198 34.256 28.99 45.194 37.704v-19.55c-9.413-7.883-21.36-17.593-21.525-23.245-.165-5.652 9.903-3.858 21.525-5.685V83.918c-9.608 3.324-17.418 5.588-21.96-.188-4.544-5.775-6.41-16.16-14.827-29.882-8.417-13.722-16.045-21.865-15.916-26.569.128-4.703 14.808-17.244 23.75-27.279h-21.234c-6.233 6.391-10.996 11.856-18.864 13.85-7.867 1.993-24.748 2.86-47.87 2.66-20.866-.182-36.19-.652-42.636-2.555C89.998 12.053 84.577 8.901 78.51 0H49.473c12.301 5.847 25.536 14.645 27.693 19.55 2.157 4.907.582 14.144-2.926 20.823s-11.327 20.512-19.416 23.92C46.736 67.701 9.608 80.593 0 83.918v15.14c11.622-1.826 53.352-21.549 65.979-18.177 12.626 3.372 19.398 10.763 31.814 18.52 12.416 7.756 32.023 12.517 33.098 16.943 1.074 4.426 1.288 21.466-8.756 25.385-10.044 3.918-38.226 4.42-50.998 5.806-12.477 1.354-33.175 3.128-39.61 1.436-6.434-1.693-22.114-13.1-31.527-20.983v19.551c7.781 6.2 16.755 9.816 16.89 14.207.136 4.391-11.5 14.924-16.89 21.111v23.995c1.589-3.667 13.368-17.648 20.2-23.625 6.83-5.978 14.42-15.464 23.263-16.803 11.54-1.748 39.043-4.057 49.473-5.12 10.429-1.062 24.495-2.028 27.275 2.122 2.78 4.15.846 12.4-4.027 19.553-4.768 6.996-23.013 23.078-32.62 31.865-9.218 8.432-20.076 18.451-27.392 18.94-8.126.54-15.89-1.477-28.95-6.493C14.165 222.275 1.399 219.043 0 217.204v17.32c5.911 1.028 34.741 14.424 49.473 21.476H78.51c-6.067-8.9-1.923-16.505 17.783-33.004 19.706-16.499 30.652-24.306 37.148-31.996 5.918-7.006 11.915-10.163 17.038-11.12 6.605-1.232 22.717 8.618 41.275 17.745 18.798 9.245 37.913 14.999 40.027 21.139 2.115 6.14-19.736 30.845-25.968 37.236h21.234c8.942-10.035 10.153-12.213 15.06-17.09 3.738-3.714 7.982-5.415 13.893-4.387v-17.319c-1.398-1.838-1.792-2.83-1.805-4.222-.012-1.393.216-2.464 1.805-6.13z"/>
</svg>